<svg width="426" height="421" viewBox="0 0 426 421" fill="none" xmlns="http://www.w3.org/2000/svg">
<g clip-path="url(#clip0_1326_320)">
<rect width="425.238" height="420.799" fill="#B6B5B5"/>
<path d="M193.821 172.657V171.809H195.517V206.283H26.5412C26.5412 167.288 71.752 141.009 96.0528 127.446C152.001 96.6463 153.979 71.4978 151.154 53.4135C147.48 31.6558 124.027 23.4613 105.095 25.1567C74.2951 27.9824 67.231 50.5878 64.4053 59.63H31.0623C33.6054 43.5236 55.3631 4.52931 108.768 4.52931C195.517 4.52931 192.691 62.4557 192.691 62.4557C192.691 109.362 133.917 139.314 120.354 146.378C106.79 153.725 83.3373 168.984 83.3373 185.373H147.48C180.258 185.373 190.148 176.33 193.821 172.657ZM310.407 3.11647C338.381 3.11647 399.133 7.63756 399.133 107.101C399.133 206.565 339.511 211.086 310.407 211.086C281.585 211.086 221.963 206.565 221.963 107.101C221.963 7.63756 281.585 3.11647 310.407 3.11647ZM344.88 169.549C353.075 154.855 356.465 135.076 356.465 107.101C356.465 79.1272 353.075 59.0649 344.88 44.6539C336.686 31.0907 324.818 23.7439 309.559 23.7439C295.148 23.7439 283.28 30.243 275.086 44.6539C267.174 59.0649 263.501 79.9749 263.501 107.101C263.501 135.076 267.174 154.855 275.086 169.549C282.433 183.112 294.3 190.176 309.559 190.176C324.818 190.176 336.686 183.96 344.88 169.549Z" fill="black"/>
<path d="M192.177 381.957V381.117H193.857V415.28H26.4015C26.4015 376.636 71.2058 350.594 95.2881 337.153C150.733 306.63 152.694 281.707 149.893 263.786C146.253 242.223 123.011 234.103 104.249 235.783C73.726 238.583 66.7253 260.985 63.9251 269.946H30.8819C33.4021 253.985 54.9642 215.341 107.889 215.341C193.857 215.341 191.057 272.746 191.057 272.746C191.057 319.231 132.812 348.914 119.37 355.914C105.929 363.195 82.6869 378.316 82.6869 394.558H146.253C178.736 394.558 188.537 385.597 192.177 381.957ZM310.515 286.468C372.401 286.468 386.682 323.151 386.682 348.354C386.682 361.795 383.042 420.04 306.034 420.04C226.227 420.04 220.066 351.994 220.066 320.631C220.066 298.229 218.106 213.101 308.555 213.101C364.28 213.101 381.362 248.944 381.362 272.186H347.198C347.198 252.584 332.077 233.543 308.555 233.543C267.391 233.543 261.23 282.827 260.39 300.749L262.07 301.869C266.551 297.389 282.792 286.468 310.515 286.468ZM306.875 399.319C342.718 399.319 348.879 366.275 348.879 350.034C348.879 334.072 342.718 304.389 306.875 304.389C276.352 304.389 265.711 329.592 265.711 350.034C265.711 367.115 271.871 399.319 306.875 399.319Z" fill="black"/>
</g>
<defs>
<clipPath id="clip0_1326_320">
<rect width="425.238" height="420.799" fill="white"/>
</clipPath>
</defs>
</svg>
