<svg width="320" height="157" viewBox="0 0 320 157" fill="none" xmlns="http://www.w3.org/2000/svg">
<rect width="320" height="157" fill="#B6B5B5"/>
<path d="M72.5947 124.756C72.5947 124.561 72.5914 124.359 72.5847 124.152C72.8246 124.152 73.0545 124.146 73.2744 124.134C73.2744 132.3 73.2777 140.454 73.2844 148.597C50.1896 148.597 27.0948 148.597 4 148.597C4 120.956 22.5405 102.333 32.4953 92.6929C55.4435 70.8911 56.2431 53.0454 55.0837 40.2269C53.5945 24.7998 43.9694 18.9952 36.2134 20.2218C23.5699 22.1912 20.6814 38.2402 19.522 44.6322C14.9644 44.6437 10.4034 44.6495 5.83905 44.6495C6.87852 33.2303 15.8039 5.57208 37.7027 5.58935C73.2744 5.57208 72.115 46.6534 72.115 46.6534C72.125 79.8744 48.0274 101.123 42.4702 106.133C36.9031 111.333 27.278 122.148 27.288 133.774C36.0502 133.774 44.819 133.774 53.5945 133.774C67.0176 133.757 71.0855 127.348 72.5947 124.756ZM120.4 4.58737C131.874 4.58737 156.781 7.80063 156.781 78.3023C156.781 148.787 132.334 152 120.4 152C108.586 152 84.1288 148.787 84.1288 78.3023C84.1288 7.80063 108.586 4.58737 120.4 4.58737ZM134.533 122.562C137.901 112.128 139.29 98.1002 139.29 78.3023C139.29 58.4527 137.901 44.2521 134.533 34.025C131.175 24.4197 126.307 19.2198 120.04 19.2025C114.133 19.2025 109.266 23.7978 105.918 34.0077C102.669 44.2349 101.17 59.0573 101.16 78.2851C101.17 98.1002 102.669 112.145 105.918 122.562C108.926 132.168 113.794 137.16 120.05 137.178C126.297 137.16 131.175 132.755 134.533 122.562ZM234.511 124.739C234.518 124.543 234.518 124.342 234.511 124.134C234.751 124.146 234.984 124.152 235.211 124.152C235.211 132.306 235.211 140.448 235.211 148.579C212.116 148.591 189.021 148.591 165.927 148.579C165.927 120.956 184.457 102.333 194.422 92.7102C217.36 70.8911 218.17 53.0627 217.02 40.2269C215.521 24.8171 205.896 18.9952 198.14 20.2045C185.507 22.2085 182.608 38.2402 181.439 44.6322C176.881 44.6322 172.327 44.638 167.776 44.6495C168.815 33.213 177.741 5.58935 199.639 5.58935C235.211 5.58935 234.062 46.6534 234.062 46.6534C234.062 79.8917 209.944 101.123 204.397 106.116C198.83 111.333 189.215 122.148 189.215 133.774C197.984 133.774 206.752 133.774 215.521 133.774C228.954 133.774 233.012 127.365 234.511 124.739ZM283.486 56.4487C309.093 56.466 315 82.7076 315 100.709C315 110.331 313.501 152 281.617 151.983C248.614 152 246.055 103.317 246.045 80.8764C246.045 64.8792 245.246 4 282.677 4C305.735 4 312.791 29.6197 312.791 46.2561C308.087 46.2561 303.379 46.2561 298.668 46.2561C298.668 32.2283 292.402 18.6152 282.677 18.5979C265.645 18.6152 263.097 53.8401 262.747 66.6759C262.98 66.9292 263.21 67.1941 263.437 67.4705C265.296 64.2745 272.002 56.466 283.486 56.4487ZM281.967 137.178C296.799 137.178 299.348 113.527 299.358 101.935C299.358 90.5162 296.799 69.2672 281.977 69.2845C269.353 69.2845 264.936 87.3029 264.946 101.935C264.946 114.132 267.494 137.178 281.967 137.178Z" fill="black"/>
</svg>
