<svg width="254" height="250" viewBox="0 0 254 250" fill="none" xmlns="http://www.w3.org/2000/svg">
<path d="M127.874 249.963H127.831C127.842 249.605 127.854 249.247 127.862 248.889C127.864 249.247 127.869 249.605 127.874 249.963ZM127.863 0C128.224 68.4333 183.77 123.806 252.271 123.883C184.533 123.893 129.444 178.028 127.895 245.396C127.587 176.938 71.9988 121.537 3.46875 121.537C2.30871 121.537 1.15242 121.554 0 121.586V121.487C1.15243 121.519 2.3087 121.537 3.46875 121.537C71.2224 121.537 126.326 67.3843 127.863 0ZM253.655 123.892C253.248 123.887 252.839 123.883 252.431 123.883C252.839 123.883 253.248 123.878 253.655 123.874V123.892Z" fill="#AF0202"/>
</svg>
