<svg width="1276" height="181" viewBox="0 0 1276 181" fill="none" xmlns="http://www.w3.org/2000/svg">
<path d="M103.72 5.15002C102.245 8.35917 98.5926 16.9489 98.6015 46.2156C98.5956 75.5656 98.5956 104.922 98.6015 134.285C98.6015 162.571 102.236 171.161 103.72 174.37C103.72 174.947 103.72 175.517 103.72 176.081C94.7275 176.081 85.7443 176.087 76.7701 176.1C76.7701 175.523 76.7701 174.953 76.7701 174.39C78.2361 172.16 81.8881 162.571 81.8881 134.266C81.8821 95.4226 81.8792 56.5605 81.8792 17.6792C81.5001 17.6792 81.1239 17.6792 80.7507 17.6792C73.358 56.8039 65.9654 95.9158 58.5727 135.015C53.1082 163.302 54.592 172.18 55.9426 175.12C55.9426 175.683 55.9456 176.26 55.9515 176.849C51.0941 176.849 46.2427 176.849 41.3972 176.849C31.5699 123.799 21.7486 70.7422 11.9331 17.6792C11.5896 17.6792 11.246 17.6856 10.9024 17.6984C10.9083 56.5541 10.9113 95.4098 10.9113 134.266C10.9113 162.571 14.5543 171.161 15.9227 174.37C15.9227 174.96 15.9197 175.536 15.9138 176.1C10.6122 176.1 5.30756 176.1 0 176.1C0 175.523 0 174.953 0 174.39C1.35058 172.16 5.00249 162.571 4.99361 134.285C4.99953 104.935 5.00249 75.5848 5.00249 46.2348C5.00249 17.6984 1.35058 9.08939 0 5.88024C0 5.39342 0 4.9002 0 4.40057C8.48262 4.40057 16.9741 4.40698 25.4745 4.41979C34.1881 50.8212 42.9047 97.229 51.6243 143.643C60.3439 97.229 69.0664 50.8212 77.7919 4.41979C86.4344 4.41979 95.077 4.41979 103.72 4.41979C103.714 4.6632 103.714 4.90661 103.72 5.15002ZM167.775 176.83C167.775 176.01 167.772 175.19 167.766 174.37C169.125 171.93 170.618 162.571 165.491 134.285C151.203 134.272 136.913 134.272 122.619 134.285C122.506 134.784 122.394 135.278 122.281 135.764C117.163 163.321 118.638 172.891 119.998 175.101C119.998 175.677 119.998 176.254 119.998 176.83C116.509 176.83 113.023 176.836 109.539 176.849C117.655 133.561 125.764 90.2598 133.868 46.9459C138.995 18.4286 137.857 9.83884 136.373 6.61047C136.379 6.13646 136.382 5.64964 136.382 5.15002C144.877 5.1372 153.368 5.1372 161.857 5.15002C161.857 5.39342 161.854 5.64324 161.848 5.89946C160.497 9.07018 159.351 17.6984 164.478 45.9658C172.694 89.5872 180.919 133.215 189.153 176.849C182.027 176.849 174.901 176.843 167.775 176.83ZM126.253 116.836C126.253 116.58 126.253 116.324 126.253 116.068C138.011 116.068 149.764 116.068 161.51 116.068C155.83 85.8977 150.146 55.7278 144.459 25.5579C144.08 25.5579 143.698 25.5643 143.313 25.5771C137.632 55.9776 131.946 86.3973 126.253 116.836ZM194.911 5.1308C215.543 5.14361 236.169 5.15002 256.789 5.15002C256.783 14.8351 256.783 24.5074 256.789 34.1669C256.522 34.1797 256.259 34.1861 255.998 34.1861C254.514 31.2268 250.524 23.348 237.454 23.348C230.553 23.3608 223.655 23.3672 216.76 23.3672C216.76 60.8137 216.76 98.2795 216.76 135.764C216.76 163.321 220.385 171.93 221.762 175.12C221.762 175.683 221.759 176.26 221.753 176.849C212.815 176.849 203.87 176.849 194.92 176.849C194.914 176.26 194.911 175.683 194.911 175.12C196.288 172.891 199.922 163.321 199.913 135.034C199.913 105.684 199.916 76.3214 199.922 46.9459C199.922 18.4286 196.288 9.83884 194.911 6.62968C194.917 6.13006 194.917 5.63043 194.911 5.1308ZM304.717 176.849C304.717 176.029 304.717 175.209 304.717 174.39C306.085 171.93 307.56 162.552 302.442 134.285C288.148 134.272 273.858 134.272 259.57 134.285C259.451 134.772 259.336 135.265 259.223 135.764C254.105 163.321 255.58 172.91 256.949 175.101C256.949 175.677 256.946 176.26 256.94 176.849C253.451 176.849 249.968 176.843 246.491 176.83C254.594 133.542 262.703 90.2534 270.819 46.9651C275.946 18.4286 274.799 9.81962 273.324 6.62968C273.324 6.14287 273.324 5.64964 273.324 5.15002C281.819 5.1372 290.313 5.1372 298.808 5.15002C298.802 5.40624 298.802 5.64964 298.808 5.88024C297.44 9.07018 296.302 17.6984 301.42 45.985C309.642 89.6064 317.87 133.228 326.104 176.849C318.972 176.849 311.843 176.849 304.717 176.849ZM263.204 116.817C263.198 116.574 263.198 116.324 263.204 116.068C274.951 116.08 286.703 116.087 298.461 116.087C292.769 85.9041 287.082 55.7342 281.401 25.5771C281.022 25.5771 280.643 25.5771 280.264 25.5771C274.577 55.9776 268.891 86.3909 263.204 116.817ZM381.353 85.571C387.6 88.7801 399.551 98.3691 400.342 124.926C401.825 176.081 374.867 181 364.293 181C344.266 181 332.679 161.322 330.858 124.926C336.544 124.939 342.228 124.939 347.909 124.926C347.915 125.746 347.918 126.566 347.918 127.386C347.918 127.386 343.928 142.413 352.698 155.692C356.332 160.342 360.313 162.802 364.293 162.802C374.529 162.821 383.619 152.502 382.482 124.926C381.007 96.6589 364.293 97.3699 364.293 97.3699C358.832 97.3827 353.37 97.3827 347.909 97.3699C347.909 91.3871 347.912 85.4108 347.918 79.4409C347.918 79.4409 361.335 79.4217 364.293 79.4409C370.433 79.4409 380.66 74.7521 381.807 51.8845C383.175 23.5978 372.255 17.929 364.285 17.929C360.313 17.9482 356.679 19.6777 354.057 21.8876C343.59 33.6865 346.771 49.4056 346.771 49.4056C346.777 50.2383 346.777 51.0582 346.771 51.8653C341.47 51.8653 336.165 51.8717 330.858 51.8845C332.679 4.6696 354.057 0 364.293 0C372.708 0 395.908 0 397.054 45.5046C397.392 71.5429 386.463 81.6508 381.353 85.571ZM487.285 5.88024C485.802 9.08939 482.167 17.6792 482.167 46.9459C482.162 76.3214 482.162 105.678 482.167 135.015C482.167 163.321 485.81 171.93 487.285 175.101C487.285 175.69 487.285 176.266 487.285 176.83C478.305 176.843 469.322 176.843 460.336 176.83C460.336 176.254 460.336 175.683 460.336 175.12C461.811 172.891 465.454 163.302 465.445 135.034C465.451 95.9222 465.454 56.8103 465.454 17.6984C465.11 17.6984 464.77 17.6984 464.432 17.6984C454.457 70.7358 444.484 123.786 434.515 176.849C426.287 176.849 418.059 176.849 409.831 176.849C409.837 176.26 409.84 175.677 409.84 175.101C411.2 172.891 414.843 163.321 414.843 135.015C414.843 105.678 414.843 76.3278 414.843 46.9651C414.843 18.4478 411.2 9.83884 409.84 6.61047C409.834 6.13646 409.834 5.64964 409.84 5.15002C418.779 5.1372 427.724 5.1372 436.674 5.15002C436.674 5.63683 436.674 6.13006 436.674 6.62968C435.306 9.07018 431.672 18.4478 431.672 46.9651C431.672 84.181 431.672 121.403 431.672 158.632C432.015 158.632 432.356 158.638 432.693 158.651C442.29 107.471 451.883 56.2979 461.473 5.1308C470.08 5.14361 478.681 5.14361 487.277 5.1308C487.283 5.38702 487.285 5.63683 487.285 5.88024ZM574.709 5.88024C573.572 9.08939 569.591 17.6984 569.591 46.9459C569.591 76.3214 569.591 105.684 569.591 135.034C569.591 163.302 573.243 171.911 574.718 175.12C574.712 175.683 574.712 176.254 574.718 176.83C565.732 176.83 556.743 176.83 547.751 176.83C547.757 176.254 547.76 175.683 547.76 175.12C549.243 172.91 552.869 163.302 552.878 135.015C552.878 122.729 552.878 110.431 552.878 98.1193C541.356 98.1193 529.832 98.1257 518.304 98.1385C518.304 110.437 518.302 122.736 518.296 135.034C518.304 163.302 521.939 171.93 523.307 175.12C523.307 175.683 523.307 176.26 523.307 176.849C514.362 176.849 505.418 176.849 496.473 176.849C496.473 176.273 496.473 175.696 496.473 175.12C497.832 172.891 501.475 163.321 501.475 135.034C501.47 105.684 501.467 76.3214 501.467 46.9459C501.467 18.4286 497.832 9.83884 496.473 6.62968C496.473 6.13006 496.47 5.63043 496.464 5.1308C505.409 5.1308 514.356 5.1372 523.307 5.15002C523.307 5.64964 523.307 6.13646 523.307 6.61047C521.939 9.08939 518.304 18.4286 518.304 46.9459C518.299 57.9377 518.299 68.9359 518.304 79.9405C529.832 79.9405 541.356 79.9405 552.878 79.9405C552.878 68.9487 552.878 57.9569 552.878 46.9651C552.878 18.4478 549.243 9.83884 547.76 6.62968C547.76 6.13006 547.76 5.63683 547.76 5.15002C556.746 5.15002 565.729 5.14361 574.709 5.1308C574.709 5.38702 574.709 5.63683 574.709 5.88024ZM730.026 5.15002C728.551 8.33995 724.908 16.9681 724.908 46.2348C724.908 75.572 724.911 104.922 724.917 134.285C724.908 162.552 728.551 171.161 730.026 174.37C730.032 174.96 730.032 175.536 730.026 176.1C721.046 176.1 712.06 176.1 703.068 176.1C703.074 175.536 703.077 174.966 703.077 174.39C704.561 172.18 708.195 162.552 708.195 134.285C708.195 95.429 708.195 56.5605 708.195 17.6792C707.81 17.6792 707.428 17.6792 707.049 17.6792C699.656 56.7911 692.263 95.9094 684.871 135.034C679.424 163.302 680.899 172.16 682.267 175.101C682.261 175.677 682.258 176.254 682.258 176.83C677.407 176.83 672.555 176.83 667.704 176.83C657.889 123.78 648.07 70.7358 638.249 17.6984C637.905 17.6856 637.565 17.6792 637.227 17.6792C637.227 56.5605 637.227 95.429 637.227 134.285C637.227 162.552 640.861 171.18 642.221 174.37C642.227 174.96 642.227 175.536 642.221 176.1C636.919 176.1 631.614 176.093 626.307 176.081C626.307 175.53 626.307 174.966 626.307 174.39C627.666 172.16 631.3 162.552 631.309 134.285C631.303 104.922 631.303 75.572 631.309 46.2348C631.309 17.6984 627.675 9.08939 626.298 5.89946C626.304 5.39983 626.307 4.90661 626.307 4.41979C634.801 4.40698 643.293 4.40698 651.781 4.41979C660.495 50.8212 669.214 97.2225 677.94 143.624C686.659 97.2225 695.376 50.8148 704.09 4.40057C712.744 4.40057 721.39 4.40698 730.026 4.41979C730.026 4.6632 730.026 4.90661 730.026 5.15002ZM794.072 176.83C794.078 176.01 794.081 175.197 794.081 174.39C795.45 171.93 796.925 162.571 791.807 134.266C777.513 134.266 763.222 134.272 748.935 134.285C748.81 134.784 748.695 135.278 748.588 135.764C743.47 163.321 744.945 172.891 746.304 175.101C746.31 175.677 746.31 176.254 746.304 176.83C742.821 176.83 739.335 176.83 735.846 176.83C743.956 133.555 752.071 90.2598 760.192 46.9459C765.31 18.4478 764.173 9.81962 762.689 6.62968C762.683 6.14287 762.68 5.64964 762.68 5.15002C771.181 5.1372 779.678 5.1372 788.172 5.15002C788.172 5.40624 788.172 5.65605 788.172 5.89946C786.804 9.07018 785.667 17.6792 790.785 45.9658C799.013 89.6 807.241 133.228 815.469 176.849C808.336 176.836 801.204 176.83 794.072 176.83ZM752.56 116.817C752.566 116.561 752.569 116.311 752.569 116.068C764.321 116.068 776.074 116.068 787.826 116.068C782.139 85.8977 776.453 55.7342 770.766 25.5771C770.387 25.5643 770.008 25.5643 769.629 25.5771C763.942 55.9904 758.252 86.4037 752.56 116.817ZM807.498 3.43975C830.281 3.42694 853.066 3.42053 875.854 3.42053C875.848 13.1056 875.848 22.7843 875.854 32.4566C875.623 32.4438 875.395 32.4438 875.17 32.4566C873.686 29.4973 869.705 21.6185 856.626 21.6378C854.428 21.6378 852.228 21.6313 850.024 21.6185C850.024 59.6672 850.027 97.7158 850.033 135.764C850.033 163.321 853.676 171.93 855.151 175.101C855.151 175.6 855.151 176.1 855.151 176.599C846.165 176.599 837.179 176.593 828.192 176.58C828.192 176.106 828.192 175.619 828.192 175.12C829.676 171.911 833.31 163.321 833.31 135.764C833.31 97.9592 833.307 60.154 833.302 22.3488C831.104 22.3616 828.906 22.368 826.709 22.368C813.638 22.368 809.657 30.2275 808.174 33.4174C807.943 33.4174 807.717 33.4239 807.498 33.4367C807.498 23.4441 807.498 13.4451 807.498 3.43975ZM917.136 5.15002C922.938 5.15002 951.024 5.15002 951.691 57.8032C951.7 113.877 924.395 113.877 917.473 113.877C910.178 113.858 903.719 113.858 903.719 113.858C903.719 120.904 903.719 127.956 903.719 135.015C903.719 163.321 907.353 171.911 908.721 175.12C908.721 175.696 908.721 176.273 908.721 176.849C899.77 176.849 890.823 176.843 881.878 176.83C881.878 176.266 881.878 175.69 881.878 175.101C883.238 172.91 886.881 163.321 886.881 135.034C886.881 105.671 886.881 76.315 886.881 46.9651C886.872 18.4478 883.238 9.81962 881.878 6.61047C881.878 6.13646 881.878 5.64964 881.878 5.15002C881.878 5.15002 911.333 5.1308 917.136 5.15002ZM917.136 95.6596C917.136 95.6596 934.649 97.1585 934.649 57.7839C934.649 22.368 917.136 23.3672 917.136 23.3672C912.497 23.3544 907.868 23.348 903.248 23.348C903.254 47.4455 903.254 71.5557 903.248 95.6788C907.868 95.666 912.497 95.6596 917.136 95.6596ZM1005.44 176.849C1005.44 176.029 1005.44 175.203 1005.45 174.37C1006.8 171.911 1008.28 162.571 1003.17 134.285C988.873 134.272 974.583 134.266 960.301 134.266C960.182 134.765 960.061 135.265 959.937 135.764C954.819 163.302 956.32 172.91 957.68 175.101C957.674 175.677 957.671 176.26 957.671 176.849C954.188 176.849 950.702 176.843 947.213 176.83C955.328 133.555 963.443 90.2598 971.559 46.9459C976.677 18.4286 975.539 9.81962 974.056 6.61047C974.056 6.12365 974.056 5.63043 974.056 5.1308C982.55 5.1308 991.044 5.1372 999.539 5.15002C999.533 5.40624 999.533 5.65605 999.539 5.89946C998.162 9.08939 997.015 17.6984 1002.13 45.985C1010.37 89.5936 1018.61 133.209 1026.83 176.83C1019.7 176.843 1012.57 176.849 1005.44 176.849ZM963.926 116.817C963.92 116.574 963.917 116.33 963.917 116.087C975.682 116.087 987.44 116.087 999.192 116.087C993.494 85.9041 987.807 55.7342 982.132 25.5771C981.747 25.5771 981.368 25.5771 980.995 25.5771C975.302 55.9776 969.613 86.3909 963.926 116.817ZM1071.67 162.821C1086.25 162.821 1093.18 147.064 1097.16 137.724C1099.09 142.734 1101.03 147.736 1102.97 152.733C1098.65 161.322 1089.55 181.019 1071.35 181C1047.67 181 1029.48 154.942 1029.49 90.5096C1029.49 40.0663 1039.96 0 1071.34 0C1090.55 0 1098.65 19.6777 1102.96 28.2867C1100.04 35.9092 1097.13 43.5253 1094.21 51.135C1094.09 50.9044 1093.97 50.6674 1093.87 50.424C1093.87 50.424 1094.21 32.937 1085.11 23.5978C1081.47 20.3887 1077.15 17.929 1071.67 17.9482C1053.14 17.929 1047.67 51.135 1047.67 90.5096C1047.67 158.863 1067.25 162.821 1071.67 162.821ZM1150.88 0C1178.85 0 1192.73 36.1462 1192.73 90.5096C1192.72 146.333 1178.17 178.559 1154.06 181C1153.03 181 1151.9 181 1150.88 181C1149.74 181 1148.6 181 1147.57 181C1123.12 177.829 1109.02 146.333 1109.01 90.5096C1109.02 36.8956 1122.76 0 1150.88 0ZM1150.87 162.821C1170.09 162.802 1174.53 140.934 1174.08 90.5096C1174.08 39.3361 1169.74 17.1987 1150.87 17.218C1131.86 17.1987 1127.55 40.0856 1127.55 90.5096C1127.55 140.934 1131.87 162.802 1150.87 162.821ZM1271.34 101.079C1274.18 108.957 1276.01 117.816 1276 129.615C1276 143.624 1273.17 155.442 1267.71 164.051C1262.24 172.91 1253.15 176.83 1241.1 176.83C1228.13 176.83 1215.16 176.83 1202.19 176.83C1202.19 176.266 1202.2 175.696 1202.2 175.12C1203.57 172.891 1207.2 163.302 1207.2 135.015C1207.2 105.678 1207.2 76.3214 1207.2 46.9459C1207.2 18.4286 1203.56 9.83884 1202.2 6.62968C1202.19 6.13006 1202.19 5.63683 1202.2 5.15002C1213.84 5.15002 1225.48 5.14361 1237.12 5.1308C1242.91 5.15002 1248.03 5.88024 1252.36 8.35917C1256.78 10.5498 1260.43 13.759 1262.93 16.9681C1265.89 20.8883 1267.71 25.5579 1269.07 31.2076C1270.54 36.6458 1271.34 42.0264 1271.34 49.1942C1271.34 57.7839 1270.21 65.6627 1268.05 72.0618C1265.89 77.4616 1260.43 85.3404 1255.31 85.3404C1255.31 85.9169 1255.31 86.4934 1255.31 87.0699C1262.59 87.0699 1268.39 94.9294 1271.34 101.079ZM1223.58 23.348C1223.58 41.9624 1223.58 60.5767 1223.58 79.1911C1228.58 79.1911 1233.59 79.1847 1238.59 79.1719C1249.51 79.1911 1254.97 69.6021 1254.97 49.9052C1254.97 41.3154 1253.83 35.1661 1250.87 30.2467C1248.03 25.5771 1244.05 23.348 1238.59 23.3672C1233.59 23.3672 1228.58 23.3608 1223.58 23.348ZM1254.97 150.753C1257.81 146.103 1259.63 138.974 1259.29 128.616C1259.3 118.546 1257.81 110.668 1254.97 105.979C1252 100.329 1247.69 98.1193 1241.77 98.1385C1235.7 98.1385 1229.64 98.1385 1223.58 98.1385C1223.58 118.047 1223.58 137.961 1223.58 157.883C1229.64 157.883 1235.7 157.883 1241.76 157.883C1247.69 157.902 1252.01 155.442 1254.97 150.753Z" fill="white"/>
</svg>
